<?xml version="1.0" standalone="no"?>
<!DOCTYPE svg PUBLIC "-//W3C//DTD SVG 20010904//EN"
 "http://www.w3.org/TR/2001/REC-SVG-20010904/DTD/svg10.dtd">
<svg version="1.0" xmlns="http://www.w3.org/2000/svg"
 width="500.000000pt" height="500.000000pt" viewBox="0 0 500.000000 500.000000"
 preserveAspectRatio="xMidYMid meet">

<g transform="translate(0.000000,500.000000) scale(0.100000,-0.100000)"
fill="#000000" stroke="none">
<path d="M2220 4779 c-756 -70 -1449 -553 -1786 -1246 -107 -218 -178 -460
-210 -705 -20 -163 -15 -491 10 -633 88 -489 289 -878 630 -1222 l131 -132 50
11 c28 5 73 16 100 24 28 8 100 23 162 34 103 17 116 22 163 59 28 22 68 43
88 47 20 4 68 22 105 40 50 24 89 34 145 39 42 4 83 12 91 19 20 16 69 16 75
0 7 -17 48 -18 64 -2 10 10 14 8 18 -10 5 -16 14 -22 34 -22 15 0 35 -9 45
-20 23 -25 115 -29 135 -5 12 14 15 14 31 -1 15 -13 36 -15 136 -10 65 3 242
6 393 6 277 0 365 9 383 38 7 10 12 10 22 2 10 -8 24 -8 55 0 22 6 62 10 89 9
26 -1 52 0 57 4 5 3 41 2 79 -3 46 -6 85 -5 113 2 39 10 45 8 66 -11 30 -29
116 -40 135 -18 10 13 17 14 37 5 29 -13 74 3 74 27 0 8 5 15 10 15 6 0 8 -10
5 -23 -5 -20 -1 -23 43 -34 80 -19 109 -7 175 72 140 166 290 428 372 648 45
123 90 299 112 442 25 156 24 509 0 660 -40 240 -103 438 -207 652 -310 633
-912 1090 -1604 1217 -184 34 -423 43 -626 25z m346 -600 c24 -23 34 -82 15
-93 -4 -3 -6 -16 -4 -30 3 -13 0 -27 -6 -30 -6 -4 -11 -16 -11 -27 0 -19 4
-20 43 -14 78 12 135 33 244 89 59 31 132 62 162 69 31 8 62 23 72 35 23 30
31 28 18 -5 -7 -20 -6 -28 3 -35 9 -5 7 -8 -7 -8 -12 0 -39 -18 -60 -41 -61
-62 -200 -151 -297 -189 -122 -47 -133 -60 -131 -160 2 -87 -6 -100 -61 -100
-13 0 -32 -7 -40 -16 -43 -43 2 -107 129 -182 136 -80 160 -147 129 -352 -10
-69 -20 -164 -20 -213 -1 -87 -1 -87 31 -115 18 -15 46 -35 64 -44 17 -9 31
-25 31 -34 0 -19 -21 -17 -105 10 -44 14 -48 14 -30 0 11 -8 30 -17 43 -21 22
-5 22 -6 6 -24 -9 -11 -22 -19 -28 -19 -7 0 -12 -12 -11 -26 0 -33 -28 -53
-52 -38 -26 16 -28 51 -5 65 17 11 18 17 10 42 -8 22 -24 35 -70 54 -32 14
-57 28 -54 30 2 3 18 -3 35 -12 28 -14 32 -14 37 0 11 27 6 59 -21 145 -18 59
-29 121 -34 200 -5 63 -11 122 -15 131 -4 9 -40 30 -80 48 -41 18 -97 47 -125
66 -59 38 -120 53 -132 34 -4 -7 -11 -54 -14 -105 -6 -73 -10 -91 -21 -87 -10
4 -14 -3 -14 -23 0 -16 -9 -42 -20 -59 -11 -16 -20 -38 -20 -47 0 -9 -7 -21
-15 -26 -14 -7 -14 -10 2 -24 10 -9 99 -59 198 -112 259 -137 260 -141 2 -16
l-67 33 -40 -19 c-28 -13 -40 -25 -40 -41 0 -52 -67 -72 -96 -28 -19 29 -11
63 20 74 18 8 21 15 18 52 -4 39 -10 49 -55 84 -27 22 -67 67 -89 99 -41 64
-51 98 -15 54 28 -35 57 -35 88 -2 21 23 22 26 7 35 -14 8 -16 27 -13 141 2
109 7 149 29 221 15 49 33 102 42 119 8 16 13 32 11 35 -15 14 -106 -44 -168
-107 -37 -38 -76 -70 -85 -70 -10 0 -28 -10 -41 -22 -15 -14 -23 -17 -23 -8 0
9 -6 8 -20 -5 -11 -10 -23 -16 -26 -12 -11 11 16 45 40 51 17 4 34 25 56 68
40 78 47 86 142 163 42 34 104 94 138 133 l61 72 -45 22 c-50 24 -55 32 -28
47 15 9 15 12 2 21 -11 7 -2 10 33 10 31 0 64 8 94 25 37 19 55 23 90 18 27
-3 43 -2 43 5 0 5 14 24 30 42 27 29 35 32 71 27 23 -3 52 -16 65 -28z m349
-1555 c24 -11 25 -13 5 -8 -14 4 -38 13 -55 20 -24 11 -25 13 -5 8 14 -4 39
-13 55 -20z m78 -21 c-7 -2 -21 -2 -30 0 -10 3 -4 5 12 5 17 0 24 -2 18 -5z
m-116 -279 c8 -10 13 -35 11 -54 l-3 -34 -120 -1 -120 0 -3 -28 c-6 -49 0 -53
71 -47 36 3 71 4 76 2 6 -2 11 -21 11 -42 0 -34 -4 -39 -31 -49 -18 -6 -44
-11 -58 -11 -40 0 -53 -13 -45 -45 l7 -27 69 6 c38 4 91 14 119 22 27 8 54 12
59 9 14 -9 12 -91 -2 -103 -24 -19 -94 -32 -208 -38 -141 -8 -154 -3 -175 69
-30 105 -37 303 -12 344 11 18 100 44 175 51 91 10 161 0 179 -24z m504 9 c18
-18 24 -93 8 -94 -8 0 -63 -1 -124 -2 l-110 -2 -3 -43 c-3 -38 -1 -43 15 -39
18 6 106 11 131 8 17 -1 15 -66 -2 -80 -8 -7 -37 -16 -65 -20 -62 -10 -65 -13
-57 -47 7 -26 7 -26 77 -20 38 4 92 14 120 22 27 8 54 12 59 9 12 -7 13 -75 2
-91 -14 -21 -50 -33 -133 -43 -134 -17 -206 -14 -228 8 -54 54 -80 352 -36
401 15 17 128 47 195 52 53 4 139 -7 151 -19z m-1500 -41 c19 -64 10 -84 -50
-116 l-54 -29 7 -81 c3 -44 8 -97 11 -116 3 -19 2 -41 -3 -48 -11 -16 -80 -34
-103 -27 -17 6 -33 52 -44 125 -16 108 -33 130 -102 130 -22 0 -47 6 -56 13
-17 12 -41 112 -31 128 3 5 31 9 63 9 59 0 230 26 266 41 11 4 34 8 52 8 29 1
33 -3 44 -37z m377 23 c105 -44 142 -140 81 -210 -37 -41 -34 -72 8 -105 16
-11 39 -30 53 -40 l25 -20 -33 -30 c-18 -16 -42 -30 -53 -30 -13 0 -51 29 -96
72 -90 88 -105 86 -113 -13 -5 -58 -7 -64 -29 -67 -40 -6 -68 7 -80 35 -33 83
-62 259 -54 323 5 33 12 44 37 57 83 44 188 55 254 28z m1682 -11 c6 -14 10
-42 10 -63 0 -35 -3 -38 -56 -64 l-56 -28 8 -82 c4 -45 8 -102 8 -127 1 -45 1
-45 -43 -59 -30 -9 -49 -11 -60 -4 -15 9 -40 93 -55 183 -10 55 -19 63 -86 71
-34 4 -66 11 -72 17 -5 5 -12 37 -15 71 l-6 61 74 1 c41 0 121 11 179 23 145
32 158 32 170 0z m-2608 -30 c30 -15 47 -59 30 -76 -7 -7 -28 -6 -66 3 -41 9
-60 9 -67 2 -16 -16 -5 -29 72 -79 38 -25 74 -54 79 -64 26 -49 -4 -126 -61
-156 -49 -25 -137 -30 -197 -10 -73 24 -102 50 -102 90 0 18 3 36 6 39 4 3 26
-5 50 -19 45 -27 114 -31 121 -7 3 6 -27 34 -65 62 -61 45 -92 82 -92 112 0
26 33 76 60 92 62 37 171 42 232 11z m129 -611 c5 -5 6 -18 3 -31 -6 -19 -11
-21 -45 -16 -72 12 -117 -47 -69 -91 16 -14 29 -16 69 -11 56 7 70 -3 40 -30
-27 -24 -95 -24 -131 0 -28 18 -58 72 -58 104 0 29 37 70 73 81 35 11 105 7
118 -6z m393 -25 c22 -25 36 -35 36 -26 0 26 33 60 51 53 14 -5 15 -13 8 -43
-5 -20 -9 -65 -9 -99 0 -44 -4 -63 -12 -63 -23 0 -34 14 -68 83 -18 37 -37 67
-41 67 -5 0 -9 -32 -9 -71 0 -68 -1 -70 -22 -63 -34 10 -39 24 -33 86 13 127
39 146 99 76z m210 36 c9 -3 25 -22 37 -41 l22 -36 16 33 c17 36 29 44 48 32
9 -5 9 -19 3 -47 -5 -22 -10 -66 -10 -97 0 -40 -4 -58 -12 -58 -22 0 -33 14
-67 84 -38 79 -53 75 -49 -14 1 -30 -2 -54 -8 -53 -43 9 -44 10 -44 70 0 32 5
75 11 96 10 36 21 43 53 31z m344 -22 c3 -21 0 -23 -30 -22 -67 4 -78 1 -78
-21 0 -17 5 -20 33 -17 26 2 32 0 32 -17 0 -14 -8 -21 -27 -23 -20 -2 -28 -9
-28 -23 0 -17 5 -20 30 -15 17 3 44 9 60 12 27 5 30 3 30 -19 0 -30 -20 -37
-107 -37 l-62 0 -11 38 c-6 20 -10 64 -8 97 4 69 13 75 108 72 49 -2 55 -4 58
-25z m246 15 c13 -10 16 -20 11 -36 -6 -19 -11 -21 -37 -16 -37 8 -85 -11 -93
-37 -4 -11 1 -30 10 -45 16 -24 21 -25 70 -19 58 7 75 -3 47 -26 -78 -69 -213
26 -179 126 17 50 128 84 171 53z m404 -9 c2 -11 -3 -18 -11 -18 -15 0 -27
-41 -27 -92 0 -21 6 -31 20 -35 23 -6 27 -41 5 -49 -25 -10 -86 6 -92 23 -4 9
-1 19 5 21 8 2 12 27 12 67 0 40 -4 65 -12 67 -7 3 -9 12 -5 22 10 25 100 19
105 -6z m376 -20 c22 -25 36 -35 36 -26 0 26 33 60 51 53 14 -5 15 -13 8 -43
-5 -20 -9 -65 -9 -99 0 -44 -4 -63 -12 -63 -23 0 -34 14 -68 83 -18 37 -37 67
-41 67 -5 0 -9 -32 -9 -71 0 -68 -1 -70 -22 -63 -34 10 -39 24 -33 86 13 127
39 146 99 76z m-1744 12 c44 -44 12 -148 -55 -176 -100 -41 -164 68 -88 149
48 50 108 62 143 27z m1220 -8 c0 -21 -7 -32 -25 -40 -25 -12 -26 -15 -19 -71
6 -54 5 -59 -15 -66 -29 -9 -38 -1 -45 42 -12 64 -17 73 -39 73 -31 0 -44 11
-48 40 -4 24 -1 25 60 32 34 4 68 9 75 12 6 2 21 5 34 5 18 1 22 -4 22 -27z
m360 8 c44 -44 12 -148 -55 -176 -100 -41 -164 68 -88 149 48 50 108 62 143
27z m195 -470 c-3 -5 -10 -10 -16 -10 -5 0 -9 5 -9 10 0 6 7 10 16 10 8 0 12
-4 9 -10z m85 -20 c0 -5 -4 -10 -10 -10 -5 0 -10 5 -10 10 0 6 5 10 10 10 6 0
10 -4 10 -10z m490 -30 c0 -5 -4 -10 -10 -10 -5 0 -10 5 -10 10 0 6 5 10 10
10 6 0 10 -4 10 -10z m-1545 -10 c3 -5 1 -10 -4 -10 -6 0 -11 5 -11 10 0 6 2
10 4 10 3 0 8 -4 11 -10z"/>
<path d="M2121 2216 c-17 -20 -10 -77 11 -89 25 -16 92 7 106 37 17 38 -9 66
-62 66 -26 0 -48 -6 -55 -14z"/>
<path d="M1581 1576 c-18 -22 4 -58 32 -54 28 4 29 36 1 55 -18 12 -23 11 -33
-1z"/>
<path d="M3161 1576 c-18 -22 4 -58 32 -54 28 4 29 36 1 55 -18 12 -23 11 -33
-1z"/>
<path d="M3680 902 c-6 -2 -10 -14 -10 -27 0 -19 -16 -35 -35 -35 -3 0 -20 14
-40 32 l-36 31 -397 -7 c-389 -7 -517 -14 -657 -36 -38 -6 -110 -15 -160 -20
-49 -6 -108 -12 -130 -16 -22 -3 -85 -11 -140 -19 -55 -8 -183 -28 -285 -46
-102 -17 -196 -31 -209 -30 -83 4 -341 -40 -341 -59 0 -7 112 -72 214 -123
l70 -35 35 18 c20 10 62 23 94 30 31 7 57 17 57 22 0 4 9 8 20 8 11 0 46 9 76
20 54 18 163 36 384 60 58 7 143 18 190 26 47 8 128 19 180 25 52 5 133 14
180 19 47 5 137 10 200 12 63 1 121 6 128 12 9 7 22 4 43 -8 24 -14 38 -15 81
-7 34 6 57 6 65 0 16 -14 185 -10 268 6 39 7 119 17 178 20 105 7 110 8 155
45 50 39 77 68 71 74 -5 5 -236 12 -249 8z m-1975 -291 c3 -5 1 -12 -5 -16 -5
-3 -10 1 -10 9 0 18 6 21 15 7z"/>
<path d="M2570 590 c-8 -5 -28 -10 -43 -10 -20 0 -30 -6 -34 -20 -5 -19 -7
-19 -17 -4 -10 13 -22 15 -57 10 -24 -3 -89 -7 -144 -10 -137 -5 -396 -24
-412 -30 -7 -3 -13 -15 -13 -26 0 -24 -9 -26 -24 -4 -10 13 -23 14 -106 3 -52
-6 -99 -15 -103 -19 -11 -9 211 -83 333 -110 229 -51 551 -65 792 -34 209 27
436 92 628 180 l84 39 -42 7 c-23 4 -106 6 -184 5 -117 -2 -149 -6 -177 -21
-34 -18 -35 -18 -52 3 -29 35 -77 49 -169 49 -75 0 -87 -2 -102 -21 -14 -18
-18 -19 -32 -8 -9 8 -19 11 -23 8 -3 -3 -18 0 -34 8 -33 17 -48 18 -69 5z"/>
</g>
</svg>
